<?xml version="1.0" encoding="UTF-8" standalone="no"?>
<!-- Created with Inkscape (http://www.inkscape.org/) -->

<svg
   xmlns:dc="http://purl.org/dc/elements/1.1/"
   xmlns:cc="http://creativecommons.org/ns#"
   xmlns:rdf="http://www.w3.org/1999/02/22-rdf-syntax-ns#"
   xmlns:svg="http://www.w3.org/2000/svg"
   xmlns="http://www.w3.org/2000/svg"
   xmlns:sodipodi="http://sodipodi.sourceforge.net/DTD/sodipodi-0.dtd"
   xmlns:inkscape="http://www.inkscape.org/namespaces/inkscape"
   width="52mm"
   height="74mm"
   viewBox="0 0 52 74"
   version="1.1"
   id="svg8"
   inkscape:version="0.92.2 5c3e80d, 2017-08-06"
   sodipodi:docname="laboratory_weight1.svg">
  <defs
     id="defs2">
    <inkscape:perspective
       sodipodi:type="inkscape:persp3d"
       inkscape:vp_x="-55.489324 : 10.442921 : 1"
       inkscape:vp_y="0 : 698.03115 : 0"
       inkscape:vp_z="164.5516 : 11.549581 : 1"
       inkscape:persp3d-origin="62.72242 : -57.67846 : 1"
       id="perspective819" />
  </defs>
  <sodipodi:namedview
     id="base"
     pagecolor="#ffffff"
     bordercolor="#666666"
     borderopacity="1.0"
     inkscape:pageopacity="0.0"
     inkscape:pageshadow="2"
     inkscape:zoom="3.6470299"
     inkscape:cx="98.068566"
     inkscape:cy="125.79746"
     inkscape:document-units="mm"
     inkscape:current-layer="layer1"
     showgrid="false"
     inkscape:window-width="1440"
     inkscape:window-height="775"
     inkscape:window-x="0"
     inkscape:window-y="1"
     inkscape:window-maximized="1" />
  <metadata
     id="metadata5">
    <rdf:RDF>
      <cc:Work
         rdf:about="">
        <dc:format>image/svg+xml</dc:format>
        <dc:type
           rdf:resource="http://purl.org/dc/dcmitype/StillImage" />
        <dc:title></dc:title>
      </cc:Work>
    </rdf:RDF>
  </metadata>
  <g
     inkscape:label="Layer 1"
     inkscape:groupmode="layer"
     id="layer1"
     transform="translate(0,-223)">
    <g
       sodipodi:type="inkscape:box3d"
       id="g821"
       style="opacity:1;fill:#000000;fill-opacity:0.22380952;fill-rule:evenodd;stroke:#06090c;stroke-width:1.00157475;stroke-linecap:round;stroke-linejoin:round;stroke-miterlimit:4;stroke-dasharray:none;stroke-dashoffset:0.74281108;stroke-opacity:0.19523812"
       inkscape:perspectiveID="#perspective819"
       inkscape:corner0="0.96719676 : 0.20501998 : 0 : 1"
       inkscape:corner7="0.52942913 : 0.12427274 : 0.33247499 : 1">
      <path
         sodipodi:type="inkscape:box3dside"
         id="path823"
         style="fill:#353564;fill-rule:evenodd;stroke:none;stroke-width:0.83679825;stroke-linejoin:round"
         inkscape:box3dsidetype="6"
         d="m 4.6021454,248.43738 v 28.65198 l 23.1246886,1.2088 v -24.50962 z"
         points="4.6021454,277.08936 27.726834,278.29816 27.726834,253.78854 4.6021454,248.43738 " />
      <path
         sodipodi:type="inkscape:box3dside"
         id="path833"
         style="fill:#e9e9ff;fill-rule:evenodd;stroke:none;stroke-width:0.83679825;stroke-linejoin:round"
         inkscape:box3dsidetype="11"
         d="m 27.726834,253.78854 19.565637,-7.70448 v 30.27228 l -19.565637,1.94182 z"
         points="47.292471,246.08406 47.292471,276.35634 27.726834,278.29816 27.726834,253.78854 " />
      <path
         sodipodi:type="inkscape:box3dside"
         id="path825"
         style="fill:#4d4d9f;fill-rule:evenodd;stroke:none;stroke-width:0.83679825;stroke-linejoin:round"
         inkscape:box3dsidetype="5"
         d="m 4.6021454,248.43738 17.1999466,-10.91098 25.490379,8.55766 -19.565637,7.70448 z"
         points="21.802092,237.5264 47.292471,246.08406 27.726834,253.78854 4.6021454,248.43738 " />
      <path
         sodipodi:type="inkscape:box3dside"
         id="path831"
         style="fill:#afafde;fill-rule:evenodd;stroke:none;stroke-width:0.83679825;stroke-linejoin:round"
         inkscape:box3dsidetype="13"
         d="m 4.6021454,277.08936 17.1999466,-2.70994 25.490379,1.97692 -19.565637,1.94182 z"
         points="21.802092,274.37942 47.292471,276.35634 27.726834,278.29816 4.6021454,277.08936 " />
      <path
         sodipodi:type="inkscape:box3dside"
         id="path829"
         style="fill:#d7d7ff;fill-rule:evenodd;stroke:none;stroke-width:0.83679825;stroke-linejoin:round"
         inkscape:box3dsidetype="14"
         d="m 21.802092,237.5264 v 36.85302 l 25.490379,1.97692 v -30.27228 z"
         points="21.802092,274.37942 47.292471,276.35634 47.292471,246.08406 21.802092,237.5264 " />
      <path
         sodipodi:type="inkscape:box3dside"
         id="path827"
         style="fill:#8686bf;fill-rule:evenodd;stroke:none;stroke-width:0.83679825;stroke-linejoin:round"
         inkscape:box3dsidetype="3"
         d="M 4.6021454,248.43738 21.802092,237.5264 v 36.85302 l -17.1999466,2.70994 z"
         points="21.802092,237.5264 21.802092,274.37942 4.6021454,277.08936 4.6021454,248.43738 " />
    </g>
    <path
       style="opacity:1;fill:#000000;fill-opacity:0.22380952;fill-rule:evenodd;stroke:#06090c;stroke-width:0.29898816;stroke-linecap:round;stroke-linejoin:round;stroke-miterlimit:4;stroke-dasharray:none;stroke-dashoffset:0.74281108;stroke-opacity:0.19523812"
       id="path863"
       sodipodi:type="arc"
       sodipodi:cx="24.076443"
       sodipodi:cy="261.82953"
       sodipodi:rx="6.2181687"
       sodipodi:ry="1.3511131"
       sodipodi:start="0.10009481"
       sodipodi:end="0.078513287"
       sodipodi:open="true"
       d="m 30.263488,261.96454 a 6.2181687,1.3511131 0 0 1 -6.775023,1.21005 6.2181687,1.3511131 0 0 1 -5.605412,-1.46556 6.2181687,1.3511131 0 0 1 6.714536,-1.22586 6.2181687,1.3511131 0 0 1 5.677867,1.45233" />
    <g
       sodipodi:type="inkscape:box3d"
       id="g881"
       style="opacity:1;fill:#000000;fill-opacity:0.94285715;fill-rule:evenodd;stroke:#06090c;stroke-width:1.00157475;stroke-linecap:round;stroke-linejoin:round;stroke-miterlimit:4;stroke-dasharray:none;stroke-dashoffset:0.74281108;stroke-opacity:0.19523812"
       inkscape:perspectiveID="#perspective819"
       inkscape:corner0="0.63248347 : 0.13135757 : 0 : 1"
       inkscape:corner7="0.52942913 : 0.12427274 : 0.10246244 : 1">
      <path
         sodipodi:type="inkscape:box3dside"
         id="path883"
         style="fill:#000000;fill-opacity:0.94285715;fill-rule:evenodd;stroke:none;stroke-linejoin:round"
         inkscape:box3dsidetype="6"
         d="m 16.922891,272.11877 v 3.02939 l 8.718656,0.60843 v -2.85048 z"
         points="16.922891,275.14816 25.641547,275.75659 25.641547,272.90611 16.922891,272.11877 " />
      <path
         sodipodi:type="inkscape:box3dside"
         id="path893"
         style="fill:#000000;fill-opacity:0.94285715;fill-rule:evenodd;stroke:none;stroke-linejoin:round"
         inkscape:box3dsidetype="11"
         d="m 25.641547,272.90611 5.123434,-0.86206 v 3.03049 l -5.123434,0.68205 z"
         points="30.764981,272.04405 30.764981,275.07454 25.641547,275.75659 25.641547,272.90611 " />
      <path
         sodipodi:type="inkscape:box3dside"
         id="path885"
         style="fill:#000000;fill-opacity:0.94285715;fill-rule:evenodd;stroke:none;stroke-linejoin:round"
         inkscape:box3dsidetype="5"
         d="m 16.922891,272.11877 4.879201,-0.97286 8.962889,0.89814 -5.123434,0.86206 z"
         points="21.802092,271.14591 30.764981,272.04405 25.641547,272.90611 16.922891,272.11877 " />
      <path
         sodipodi:type="inkscape:box3dside"
         id="path891"
         style="fill:#000000;fill-opacity:0.94285715;fill-rule:evenodd;stroke:none;stroke-linejoin:round"
         inkscape:box3dsidetype="13"
         d="m 16.922891,275.14816 4.879201,-0.76874 8.962889,0.69512 -5.123434,0.68205 z"
         points="21.802092,274.37942 30.764981,275.07454 25.641547,275.75659 16.922891,275.14816 " />
      <path
         sodipodi:type="inkscape:box3dside"
         id="path889"
         style="fill:#000000;fill-opacity:0.94285715;fill-rule:evenodd;stroke:none;stroke-linejoin:round"
         inkscape:box3dsidetype="14"
         d="m 21.802092,271.14591 v 3.23351 l 8.962889,0.69512 v -3.03049 z"
         points="21.802092,274.37942 30.764981,275.07454 30.764981,272.04405 21.802092,271.14591 " />
      <path
         sodipodi:type="inkscape:box3dside"
         id="path887"
         style="fill:#000000;fill-opacity:0.94285715;fill-rule:evenodd;stroke:none;stroke-linejoin:round"
         inkscape:box3dsidetype="3"
         d="m 16.922891,272.11877 4.879201,-0.97286 v 3.23351 l -4.879201,0.76874 z"
         points="21.802092,271.14591 21.802092,274.37942 16.922891,275.14816 16.922891,272.11877 " />
    </g>
    <path
       style="fill:none;stroke:#53536c;stroke-width:0.26458332px;stroke-linecap:butt;stroke-linejoin:miter;stroke-opacity:0.52941165"
       d="m 17.858275,262.0374 3.943819,9.10851 z"
       id="path4587"
       inkscape:connector-curvature="0" />
    <path
       inkscape:connector-curvature="0"
       id="path4591"
       d="m 26.930415,271.31383 3.333073,-9.34929 z"
       style="fill:none;stroke:#53536c;stroke-width:0.26458332px;stroke-linecap:butt;stroke-linejoin:miter;stroke-opacity:0.52941165" />
    <path
       d="m 26.925382,271.33287 a 2.6143744,0.88546264 0 0 1 -2.848499,0.79301 2.6143744,0.88546264 0 0 1 -2.356746,-0.96047 2.6143744,0.88546264 0 0 1 2.823067,-0.80337 2.6143744,0.88546264 0 0 1 2.387209,0.95179"
       sodipodi:open="true"
       sodipodi:end="0.078513287"
       sodipodi:start="0.10009481"
       sodipodi:ry="0.88546264"
       sodipodi:rx="2.6143744"
       sodipodi:cy="271.24438"
       sodipodi:cx="24.324093"
       sodipodi:type="arc"
       id="path4593"
       style="opacity:1;fill:#000000;fill-opacity:0.22380952;fill-rule:evenodd;stroke:#06090c;stroke-width:0.15694445;stroke-linecap:round;stroke-linejoin:round;stroke-miterlimit:4;stroke-dasharray:none;stroke-dashoffset:0.74281108;stroke-opacity:0.19523812" />
    <path
       style="fill:none;stroke:#000000;stroke-width:0.26458332px;stroke-linecap:butt;stroke-linejoin:miter;stroke-opacity:1"
       d="m 23.26273,241.97856 -8.314542,5.92411 11.848221,3.32582 7.690954,-5.61231 z"
       id="path4607"
       inkscape:connector-curvature="0" />
    <path
       style="opacity:1;fill:#53536c;fill-opacity:0.52941165;fill-rule:evenodd;stroke:#53536c;stroke-width:0.10409544;stroke-linecap:round;stroke-linejoin:round;stroke-miterlimit:4;stroke-dasharray:none;stroke-dashoffset:0.74281108;stroke-opacity:0.52941165"
       d="m 24.283169,250.33854 -2.442395,-0.69076 -0.02749,-3.18678 -0.02748,-3.18677 0.703043,-0.51866 c 0.38667,-0.28526 0.768204,-0.51937 0.847852,-0.52023 0.150818,-0.002 10.361782,3.29285 10.581291,3.41397 0.101737,0.0561 -3.713314,2.9223 -6.668072,5.00958 l -0.524351,0.37041 z"
       id="path4609"
       inkscape:connector-curvature="0" />
    <path
       style="opacity:1;fill:#ffffff;fill-opacity:0.82938388;fill-rule:evenodd;stroke:#000000;stroke-width:0.10409544;stroke-linecap:round;stroke-linejoin:round;stroke-miterlimit:4;stroke-dasharray:none;stroke-dashoffset:0.74281108;stroke-opacity:0"
       d="m 18.566923,248.73631 c -1.686293,-0.4752 -3.065989,-0.89596 -3.065989,-0.93503 0,-0.072 6.100027,-4.4436 6.135949,-4.39737 0.06098,0.0785 0.128921,6.20793 0.06875,6.20271 -0.04,-0.003 -1.452417,-0.39511 -3.13871,-0.87031 z"
       id="path4621"
       inkscape:connector-curvature="0" />
    <path
       style="opacity:1;fill:#ffffff;fill-opacity:0.82938388;fill-rule:evenodd;stroke:#000000;stroke-width:0.10409544;stroke-linecap:round;stroke-linejoin:round;stroke-miterlimit:4;stroke-dasharray:none;stroke-dashoffset:0.74281108;stroke-opacity:0"
       d="m 24.257187,250.26627 -2.364449,-0.67929 v -3.15909 -3.15908 l 0.486693,-0.33564 c 0.267682,-0.1846 0.562271,-0.40579 0.654645,-0.49154 0.194168,-0.18022 0.770975,-0.25522 0.666822,-0.0867 -0.04396,0.0711 0.01389,0.0832 0.166545,0.0347 0.142319,-0.0452 0.209518,-0.0348 0.171637,0.0265 -0.03424,0.0554 0.275593,0.20121 0.688523,0.324 0.41293,0.1228 2.547998,0.80504 4.744598,1.51609 2.196597,0.71106 4.027392,1.27208 4.068432,1.24671 0.148746,-0.0919 0.184023,0.25257 0.03825,0.37355 -0.08235,0.0683 -0.149719,0.18868 -0.149719,0.26742 0,0.0787 -0.04953,0.14318 -0.110067,0.14318 -0.06151,0 -0.07471,-0.0573 -0.02992,-0.12992 0.04408,-0.0714 -0.11685,0.026 -0.357626,0.2166 -0.240776,0.19058 -0.437777,0.39714 -0.437777,0.45903 0,0.0619 -0.02742,0.0851 -0.06093,0.0516 -0.03351,-0.0335 -0.770128,0.4644 -1.636927,1.10647 -2.124221,1.57348 -4.077851,2.97521 -4.130897,2.96392 -0.02387,-0.005 -1.107395,-0.31493 -2.407841,-0.68853 z"
       id="path4623"
       inkscape:connector-curvature="0" />
    <path
       style="opacity:1;fill:#ffffff;fill-opacity:0.82938388;fill-rule:evenodd;stroke:#000000;stroke-width:0.10409544;stroke-linecap:round;stroke-linejoin:round;stroke-miterlimit:4;stroke-dasharray:none;stroke-dashoffset:0.74281108;stroke-opacity:0"
       d="m 21.811024,246.41702 c 0.0222,-3.29662 0.05713,-2.92384 0.107154,1.14336 0.01461,1.18618 -0.0085,2.15664 -0.05142,2.15658 -0.04287,-5e-5 -0.06795,-1.48503 -0.05573,-3.29994 z"
       id="path4625"
       inkscape:connector-curvature="0" />
    <path
       style="opacity:1;fill:#ffffff;fill-opacity:0.82938388;fill-rule:evenodd;stroke:#000000;stroke-width:0.10409544;stroke-linecap:round;stroke-linejoin:round;stroke-miterlimit:4;stroke-dasharray:none;stroke-dashoffset:0.74281108;stroke-opacity:0"
       d="m 21.702526,244.31241 0.01132,-1.09129 0.08238,0.93125 c 0.04719,0.53341 0.04235,0.99962 -0.01132,1.09129 -0.05943,0.10148 -0.08956,-0.2392 -0.08238,-0.93125 z"
       id="path4627"
       inkscape:connector-curvature="0" />
    <path
       style="opacity:1;fill:#ffffff;fill-opacity:0.82938388;fill-rule:evenodd;stroke:#000000;stroke-width:0.10409544;stroke-linecap:round;stroke-linejoin:round;stroke-miterlimit:4;stroke-dasharray:none;stroke-dashoffset:0.74281108;stroke-opacity:0"
       d="m 24.101678,250.19934 -2.208162,-0.63838 -2.65e-4,-3.12697 -2.64e-4,-3.12698 0.717949,-0.49501 c 0.629179,-0.43381 0.760897,-0.48583 1.0653,-0.42069 0.191045,0.0409 0.394123,0.11073 0.451284,0.15523 0.09775,0.0761 7.618796,2.48706 8.912151,2.85691 0.328684,0.094 0.59595,0.20265 0.593923,0.24146 -0.0082,0.15681 -0.265276,0.48826 -0.401299,0.51737 -0.07984,0.0171 -0.360452,0.21632 -0.623591,0.44275 -0.263138,0.22642 -1.016283,0.79406 -1.673651,1.26141 -0.65737,0.46734 -1.864931,1.3321 -2.683473,1.92169 -0.881737,0.63511 -1.58061,1.06742 -1.714873,1.06079 -0.12464,-0.006 -1.220292,-0.29847 -2.43478,-0.64958 z"
       id="path4629"
       inkscape:connector-curvature="0" />
    <path
       style="opacity:1;fill:#ffffff;fill-opacity:0.82938388;fill-rule:evenodd;stroke:#000000;stroke-width:0.10409544;stroke-linecap:round;stroke-linejoin:round;stroke-miterlimit:4;stroke-dasharray:none;stroke-dashoffset:0.74281108;stroke-opacity:0"
       d="m 24.153264,250.20369 -2.260507,-0.64273 -8e-6,-3.12922 -1.1e-5,-3.12922 0.545642,-0.36156 c 1.004927,-0.6659 0.798965,-0.66657 2.850491,0.009 1.019734,0.33593 3.303543,1.06661 5.075127,1.62374 1.771586,0.55713 3.237045,1.02669 3.256576,1.04347 0.07709,0.0662 -0.156699,0.35609 -0.471585,0.58472 -0.182452,0.13247 -1.431097,1.04714 -2.774773,2.03259 -2.596957,1.90461 -3.662016,2.62963 -3.846642,2.61852 -0.06259,-0.004 -1.13103,-0.29607 -2.37431,-0.64957 z"
       id="path4631"
       inkscape:connector-curvature="0" />
    <path
       style="opacity:1;fill:#ffffff;fill-opacity:0.82938388;fill-rule:evenodd;stroke:#000000;stroke-width:0.10409544;stroke-linecap:round;stroke-linejoin:round;stroke-miterlimit:4;stroke-dasharray:none;stroke-dashoffset:0.74281108;stroke-opacity:0"
       d="m 24.153256,250.20485 -2.260518,-0.64376 v -3.12672 -3.12673 l 0.545642,-0.36922 c 0.994053,-0.67264 0.784381,-0.67724 3.062738,0.0672 1.130747,0.36948 3.412212,1.1013 5.069924,1.62627 1.657713,0.52497 3.030001,0.96834 3.049532,0.98526 0.150122,0.13005 -0.522668,0.66933 -3.777054,3.02754 -2.089631,1.5142 -3.146152,2.21823 -3.315946,2.20964 -0.06259,-0.003 -1.131036,-0.29544 -2.374318,-0.6495 z"
       id="path4633"
       inkscape:connector-curvature="0" />
    <path
       style="opacity:1;fill:#ffffff;fill-opacity:0.82938388;fill-rule:evenodd;stroke:#000000;stroke-width:0.10409544;stroke-linecap:round;stroke-linejoin:round;stroke-miterlimit:4;stroke-dasharray:none;stroke-dashoffset:0.74281108;stroke-opacity:0"
       d="m 20.073934,249.13739 c -3.848349,-1.09301 -4.536382,-1.32058 -4.397626,-1.45452 0.07503,-0.0724 1.419442,-1.04809 2.987577,-2.16815 2.04389,-1.45987 2.874748,-1.99931 2.93448,-1.9052 0.04583,0.0722 0.08404,1.42911 0.08492,3.01537 0.0016,2.68137 -0.01119,2.88349 -0.180287,2.87541 -0.100036,-0.005 -0.743114,-0.16809 -1.429062,-0.36291 z"
       id="path4635"
       inkscape:connector-curvature="0" />
    <path
       style="opacity:1;fill:#ffffff;fill-opacity:0.82938388;fill-rule:evenodd;stroke:#000000;stroke-width:0.10409544;stroke-linecap:round;stroke-linejoin:round;stroke-miterlimit:4;stroke-dasharray:none;stroke-dashoffset:0.74281108;stroke-opacity:0"
       d="m 19.398376,248.94595 c -2.855508,-0.81474 -3.741544,-1.09701 -3.741544,-1.192 0,-0.0669 3.830677,-2.8474 5.574554,-4.04626 l 0.326001,-0.22412 0.06233,0.23254 c 0.03428,0.12789 0.06296,1.48361 0.06374,3.01271 0.0013,2.58177 -0.01156,2.77966 -0.180459,2.77295 -0.100036,-0.004 -1.047115,-0.25409 -2.10462,-0.55582 z"
       id="path4637"
       inkscape:connector-curvature="0" />
    <path
       style="opacity:1;fill:#ffffff;fill-opacity:0.82938388;fill-rule:evenodd;stroke:#000000;stroke-width:0.10409544;stroke-linecap:round;stroke-linejoin:round;stroke-miterlimit:4;stroke-dasharray:none;stroke-dashoffset:0.74281108;stroke-opacity:0"
       d="m 21.217183,249.45595 c -0.05716,-0.0201 -0.969164,-0.27844 -2.026669,-0.57398 -2.533991,-0.70819 -3.533682,-1.02697 -3.533682,-1.12683 0,-0.0451 1.110771,-0.877 2.46838,-1.84878 3.473555,-2.48639 3.422697,-2.45354 3.497384,-2.25891 0.03426,0.0893 0.06228,1.44463 0.06228,3.01192 0,2.64777 -0.01288,2.84904 -0.18188,2.84142 -0.100036,-0.004 -0.22865,-0.0247 -0.285813,-0.0448 z"
       id="path4639"
       inkscape:connector-curvature="0" />
    <path
       style="opacity:1;fill:#ffffff;fill-opacity:0.82938388;fill-rule:evenodd;stroke:#000000;stroke-width:0.10409544;stroke-linecap:round;stroke-linejoin:round;stroke-miterlimit:4;stroke-dasharray:none;stroke-dashoffset:0.74281108;stroke-opacity:0"
       d="m 19.502307,248.99454 c -2.626103,-0.75334 -3.845475,-1.14613 -3.845475,-1.23873 0,-0.0463 0.876924,-0.7175 1.948722,-1.49151 3.311451,-2.39139 3.908552,-2.78721 3.996312,-2.64912 0.04391,0.0691 0.08054,1.42345 0.08142,3.00971 l 0.0016,2.88411 -0.233847,-0.0113 c -0.128616,-0.006 -1.005541,-0.23264 -1.948722,-0.5032 z"
       id="path4641"
       inkscape:connector-curvature="0" />
    <path
       style="opacity:1;fill:#ffffff;fill-opacity:0.82938388;fill-rule:evenodd;stroke:#000000;stroke-width:0.10409544;stroke-linecap:round;stroke-linejoin:round;stroke-miterlimit:4;stroke-dasharray:none;stroke-dashoffset:0.74281108;stroke-opacity:0"
       d="m 19.095597,248.88084 c -2.576419,-0.74487 -3.438765,-1.02764 -3.438765,-1.12761 0,-0.0924 0.03999,-0.12215 3.255383,-2.42644 1.418905,-1.01685 2.623214,-1.822 2.676244,-1.78923 0.05561,0.0344 0.09642,1.31059 0.09642,3.01551 v 2.95593 l -0.233847,-0.007 c -0.128616,-0.004 -1.188561,-0.28341 -2.355432,-0.62077 z"
       id="path4643"
       inkscape:connector-curvature="0" />
    <path
       style="opacity:1;fill:#ffffff;fill-opacity:0.82938388;fill-rule:evenodd;stroke:#000000;stroke-width:0.10409544;stroke-linecap:round;stroke-linejoin:round;stroke-miterlimit:4;stroke-dasharray:none;stroke-dashoffset:0.74281108;stroke-opacity:0"
       d="m 24.101289,250.20755 -2.208551,-0.63006 v -3.13458 -3.13458 l 0.441711,-0.31509 c 1.058873,-0.75533 0.706602,-0.78586 4.308891,0.37344 1.760098,0.56644 4.042026,1.29689 5.070951,1.62323 1.028925,0.32633 1.886752,0.60789 1.906283,0.62568 0.08011,0.073 -0.16428,0.36342 -0.55517,0.65986 -1.21036,0.91788 -5.182857,3.78471 -5.758344,4.15562 -0.366128,0.23597 -0.74028,0.42398 -0.831453,0.41779 -0.09117,-0.006 -1.159616,-0.29478 -2.374318,-0.64131 z"
       id="path4645"
       inkscape:connector-curvature="0" />
    <path
       style="opacity:1;fill:#ffffff;fill-opacity:0.82938388;fill-rule:evenodd;stroke:#000000;stroke-width:0.10409544;stroke-linecap:round;stroke-linejoin:round;stroke-miterlimit:4;stroke-dasharray:none;stroke-dashoffset:0.74281108;stroke-opacity:0"
       d="m 24.101289,250.20874 -2.208551,-0.63562 v -3.14614 -3.14615 l 0.597609,-0.40172 c 0.328684,-0.22095 0.680884,-0.43224 0.782664,-0.46953 0.110681,-0.0405 1.86513,0.47025 4.365136,1.27087 2.299041,0.73626 4.589309,1.46578 5.08948,1.62115 0.50017,0.15537 0.909402,0.3148 0.909402,0.3543 0,0.22312 -0.633611,0.7239 -3.845476,3.03929 -2.602584,1.87618 -3.048307,2.16772 -3.297766,2.15704 -0.101172,-0.004 -1.177796,-0.2939 -2.392498,-0.64349 z"
       id="path4647"
       inkscape:connector-curvature="0" />
    <path
       style="opacity:1;fill:#ffffff;fill-opacity:0.82938388;fill-rule:evenodd;stroke:#000000;stroke-width:0.10409544;stroke-linecap:round;stroke-linejoin:round;stroke-miterlimit:4;stroke-dasharray:none;stroke-dashoffset:0.74281108;stroke-opacity:0"
       d="m 19.294445,248.94743 c -2.325968,-0.66186 -3.637613,-1.09235 -3.637613,-1.19389 0,-0.17716 5.801299,-4.29653 5.934696,-4.21408 0.05164,0.0319 0.09335,1.37853 0.09335,3.01361 v 2.95593 l -0.233847,-0.007 c -0.128616,-0.004 -1.099079,-0.25343 -2.156584,-0.55435 z"
       id="path4649"
       inkscape:connector-curvature="0" />
    <path
       style="opacity:1;fill:#ffffff;fill-opacity:0.82938388;fill-rule:evenodd;stroke:#000000;stroke-width:0.10409544;stroke-linecap:round;stroke-linejoin:round;stroke-miterlimit:4;stroke-dasharray:none;stroke-dashoffset:0.74281108;stroke-opacity:0"
       d="m 18.878719,248.8261 c -2.520442,-0.72345 -3.221887,-0.96112 -3.221887,-1.09166 0,-0.0459 0.80677,-0.66529 1.792824,-1.37648 2.973152,-2.1444 4.049229,-2.87576 4.144534,-2.81686 0.04988,0.0308 0.09069,1.38621 0.09069,3.01197 v 2.95593 l -0.233847,-0.006 c -0.128616,-0.003 -1.286155,-0.30789 -2.57231,-0.67706 z"
       id="path4651"
       inkscape:connector-curvature="0" />
    <path
       style="opacity:1;fill:#ffffff;fill-opacity:0.82938388;fill-rule:evenodd;stroke:#000000;stroke-width:0.10409544;stroke-linecap:round;stroke-linejoin:round;stroke-miterlimit:4;stroke-dasharray:none;stroke-dashoffset:0.74281108;stroke-opacity:0"
       d="m 18.878719,248.82985 c -2.584027,-0.74112 -3.221887,-0.95704 -3.221887,-1.09061 0,-0.18356 5.798624,-4.28388 5.937141,-4.19827 0.05,0.0309 0.0909,1.38634 0.0909,3.0121 v 2.95593 l -0.233847,-0.004 c -0.128616,-0.002 -1.286155,-0.30604 -2.57231,-0.67492 z"
       id="path4653"
       inkscape:connector-curvature="0" />
    <path
       style="opacity:1;fill:#ffffff;fill-opacity:0.82938388;fill-rule:evenodd;stroke:#000000;stroke-width:0.10409544;stroke-linecap:round;stroke-linejoin:round;stroke-miterlimit:4;stroke-dasharray:none;stroke-dashoffset:0.74281108;stroke-opacity:0"
       d="m 21.113252,249.45698 c -0.05716,-0.0196 -1.062704,-0.30268 -2.234533,-0.62909 -2.335586,-0.65056 -3.221887,-0.94935 -3.221887,-1.08614 0,-0.19309 5.790329,-4.29151 5.935972,-4.2015 0.05064,0.0313 0.09207,1.38706 0.09207,3.01282 v 2.95593 l -0.233847,-0.008 c -0.128616,-0.004 -0.280617,-0.0242 -0.337777,-0.0438 z"
       id="path4655"
       inkscape:connector-curvature="0" />
    <path
       style="opacity:1;fill:#ffffff;fill-opacity:0.82938388;fill-rule:evenodd;stroke:#000000;stroke-width:0.10409544;stroke-linecap:round;stroke-linejoin:round;stroke-miterlimit:4;stroke-dasharray:none;stroke-dashoffset:0.74281108;stroke-opacity:0"
       d="m 18.670854,248.78111 c -2.744602,-0.79742 -3.014022,-0.8893 -3.014022,-1.02778 0,-0.20238 5.781696,-4.30843 5.934061,-4.21426 0.05246,0.0324 0.09398,1.36414 0.09398,3.014 V 249.509 L 21.39906,249.5 c -0.157197,-0.005 -1.38489,-0.32846 -2.728209,-0.71876 z"
       id="path4657"
       inkscape:connector-curvature="0" />
    <path
       style="opacity:1;fill:#ffffff;fill-opacity:0.82938388;fill-rule:evenodd;stroke:#000000;stroke-width:0.10409544;stroke-linecap:round;stroke-linejoin:round;stroke-miterlimit:4;stroke-dasharray:none;stroke-dashoffset:0.74281108;stroke-opacity:0"
       d="m 18.670854,248.78326 c -2.728436,-0.79231 -3.014022,-0.8899 -3.014022,-1.02993 0,-0.10128 1.317238,-1.09525 3.481715,-2.62726 1.862318,-1.31815 2.364611,-1.64123 2.459972,-1.58229 0.04749,0.0294 0.08636,1.38353 0.08636,3.00929 v 2.95593 l -0.285813,-0.008 c -0.157197,-0.004 -1.38489,-0.32741 -2.728209,-0.71749 z"
       id="path4659"
       inkscape:connector-curvature="0" />
    <path
       style="opacity:1;fill:#ffffff;fill-opacity:0.82938388;fill-rule:evenodd;stroke:#000000;stroke-width:0.10409544;stroke-linecap:round;stroke-linejoin:round;stroke-miterlimit:4;stroke-dasharray:none;stroke-dashoffset:0.74281108;stroke-opacity:0"
       d="m 18.826752,248.83258 c -2.707183,-0.78535 -3.094472,-0.91605 -3.142642,-1.06056 -0.06566,-0.19697 5.725255,-4.34514 5.908112,-4.23213 0.05096,0.0315 0.09265,1.38742 0.09265,3.01318 v 2.95593 l -0.285813,-0.007 c -0.157193,-0.004 -1.314732,-0.30501 -2.572307,-0.66983 z"
       id="path4661"
       inkscape:connector-curvature="0" />
    <path
       style="opacity:1;fill:#ffffff;fill-opacity:0.82938388;fill-rule:evenodd;stroke:#000000;stroke-width:0.10409544;stroke-linecap:round;stroke-linejoin:round;stroke-miterlimit:4;stroke-dasharray:none;stroke-dashoffset:0.74281108;stroke-opacity:0"
       d="m 24.101289,250.21742 -2.208551,-0.62882 v -3.15388 -3.15389 l 0.643398,-0.43692 c 0.353867,-0.2403 0.763098,-0.43582 0.909402,-0.43448 0.218064,0.002 10.069692,3.09765 10.166694,3.19465 0.157268,0.15726 -0.618988,0.78925 -3.716745,3.02594 -2.291498,1.65455 -3.162816,2.22969 -3.367982,2.22315 -0.119716,-0.004 -1.211514,-0.2899 -2.426216,-0.63575 z"
       id="path4663"
       inkscape:connector-curvature="0" />
    <path
       style="opacity:1;fill:#ffffff;fill-opacity:0.82938388;fill-rule:evenodd;stroke:#000000;stroke-width:0.10409544;stroke-linecap:round;stroke-linejoin:round;stroke-miterlimit:4;stroke-dasharray:none;stroke-dashoffset:0.74281108;stroke-opacity:0"
       d="m 24.101289,250.21806 -2.208551,-0.63149 v -3.15287 -3.15287 l 0.597609,-0.40172 c 0.328684,-0.22095 0.68099,-0.43228 0.7829,-0.46962 0.156598,-0.0574 10.182407,3.03801 10.335347,3.19095 0.09511,0.0951 -0.163806,0.41432 -0.608127,0.74974 -0.760573,0.57416 -5.415346,3.93862 -5.857316,4.23365 -0.227629,0.15195 -0.508244,0.2739 -0.623591,0.271 -0.115345,-0.003 -1.203569,-0.28945 -2.418271,-0.63677 z"
       id="path4665"
       inkscape:connector-curvature="0" />
    <path
       style="opacity:1;fill:#ffffff;fill-opacity:0.82938388;fill-rule:evenodd;stroke:#000000;stroke-width:0.10409544;stroke-linecap:round;stroke-linejoin:round;stroke-miterlimit:4;stroke-dasharray:none;stroke-dashoffset:0.74281108;stroke-opacity:0"
       d="m 24.491034,250.33477 c -1.000345,-0.28202 -1.994191,-0.56161 -2.208551,-0.62131 l -0.389745,-0.10854 v -3.16509 -3.16508 l 0.726591,-0.48315 0.726588,-0.48315 3.976325,1.25877 c 2.186977,0.69232 4.502478,1.42549 5.145556,1.62926 0.742198,0.23517 1.169231,0.42261 1.169231,0.51321 0,0.17074 -0.678599,0.70877 -3.169918,2.51327 -2.896936,2.09829 -3.704701,2.63767 -3.93996,2.63085 -0.119521,-0.004 -1.035775,-0.23703 -2.036117,-0.51904 z"
       id="path4667"
       inkscape:connector-curvature="0" />
    <path
       style="opacity:1;fill:#ffffff;fill-opacity:0.82938388;fill-rule:evenodd;stroke:#000000;stroke-width:0.10409544;stroke-linecap:round;stroke-linejoin:round;stroke-miterlimit:4;stroke-dasharray:none;stroke-dashoffset:0.74281108;stroke-opacity:0"
       d="m 24.491034,250.33477 c -1.000345,-0.28202 -1.994191,-0.56161 -2.208551,-0.62131 l -0.389745,-0.10854 v -3.15617 -3.15616 l 0.528796,-0.37991 c 0.941446,-0.67635 0.561494,-0.7296 5.143926,0.72091 5.912617,1.87156 6.071569,1.92604 6.071569,2.08098 0,0.16834 -0.681609,0.70586 -3.377782,2.66372 -2.722677,1.9771 -3.487299,2.48315 -3.740433,2.47552 -0.114935,-0.004 -1.027438,-0.23703 -2.02778,-0.51904 z"
       id="path4669"
       inkscape:connector-curvature="0" />
    <path
       style="opacity:1;fill:#ffffff;fill-opacity:0.82938388;fill-rule:evenodd;stroke:#000000;stroke-width:0.10409544;stroke-linecap:round;stroke-linejoin:round;stroke-miterlimit:4;stroke-dasharray:none;stroke-dashoffset:0.74281108;stroke-opacity:0"
       d="m 21.717081,244.57224 c 5.29e-4,-0.34298 0.01998,-0.47076 0.04312,-0.28395 0.02312,0.1868 0.02265,0.46741 -0.0011,0.62359 -0.02371,0.15617 -0.04264,0.003 -0.04206,-0.33964 z"
       id="path4671"
       inkscape:connector-curvature="0" />
    <path
       style="opacity:1;fill:#ffffff;fill-opacity:0.82938388;fill-rule:evenodd;stroke:#000000;stroke-width:0.10409544;stroke-linecap:round;stroke-linejoin:round;stroke-miterlimit:4;stroke-dasharray:none;stroke-dashoffset:0.74281108;stroke-opacity:0"
       d="m 21.713184,244.52027 c 0,-0.25723 0.02027,-0.36246 0.04504,-0.23385 0.02477,0.12862 0.02477,0.33908 0,0.4677 -0.02476,0.12861 -0.04504,0.0234 -0.04504,-0.23385 z"
       id="path4673"
       inkscape:connector-curvature="0" />
    <path
       style="opacity:1;fill:#ffffff;fill-opacity:0.82938388;fill-rule:evenodd;stroke:#000000;stroke-width:0.10409544;stroke-linecap:round;stroke-linejoin:round;stroke-miterlimit:4;stroke-dasharray:none;stroke-dashoffset:0.74281108;stroke-opacity:0"
       d="m 21.702817,248.00198 c -0.0033,-0.9146 0.03273,-1.84998 0.08003,-2.07863 0.05981,-0.28914 0.08781,0.0906 0.09195,1.24718 0.0033,0.9146 -0.03273,1.84999 -0.08003,2.07863 -0.05981,0.28915 -0.08781,-0.0906 -0.09195,-1.24718 z"
       id="path4675"
       inkscape:connector-curvature="0" />
    <path
       style="opacity:1;fill:#ffffff;fill-opacity:0.82938388;fill-rule:evenodd;stroke:#000000;stroke-width:0.10409544;stroke-linecap:round;stroke-linejoin:round;stroke-miterlimit:4;stroke-dasharray:none;stroke-dashoffset:0.74281108;stroke-opacity:0"
       d="m 21.705588,248.10592 c -0.0029,-0.68595 0.03214,-1.45765 0.07791,-1.71488 0.06386,-0.3589 0.08445,-0.17759 0.08852,0.77949 0.0029,0.68595 -0.03214,1.45764 -0.07791,1.71487 -0.06386,0.35891 -0.08445,0.1776 -0.08852,-0.77948 z"
       id="path4677"
       inkscape:connector-curvature="0" />
    <path
       style="opacity:1;fill:#ffffff;fill-opacity:0.82938388;fill-rule:evenodd;stroke:#000000;stroke-width:0.10409544;stroke-linecap:round;stroke-linejoin:round;stroke-miterlimit:4;stroke-dasharray:none;stroke-dashoffset:0.74281108;stroke-opacity:0"
       d="m 24.646931,250.39914 c -0.857437,-0.24403 -1.8279,-0.52206 -2.156584,-0.61786 l -0.597609,-0.17416 -0.01236,-0.5947 -0.01236,-0.59471 -0.09951,0.54564 c -0.08417,0.4615 -0.134551,0.54565 -0.326731,0.54565 -0.252579,0 -3.298553,-0.84222 -4.882422,-1.35 -0.855896,-0.27439 -1.000282,-0.35105 -0.896581,-0.476 0.156636,-0.18874 2.981984,-2.24576 4.612503,-3.35818 0.834416,-0.56929 1.275021,-0.81213 1.345541,-0.74161 0.0621,0.0621 0.100367,0.73011 0.09385,1.63823 -0.0065,0.91074 0.02318,1.42786 0.07316,1.27353 0.04629,-0.1429 0.08883,-0.926 0.09453,-1.7402 l 0.01037,-1.48038 0.441711,-0.32174 c 0.770112,-0.56095 0.995503,-0.64553 1.416016,-0.53136 0.463264,0.12578 6.864977,2.15896 8.613399,2.73561 0.800095,0.26388 1.273164,0.47254 1.273164,0.56155 0,0.16966 -1.057063,1.00152 -3.605011,2.83699 -2.873968,2.07033 -3.237413,2.3056 -3.546867,2.29603 -0.153582,-0.005 -0.980781,-0.2083 -1.838219,-0.45233 z"
       id="path4679"
       inkscape:connector-curvature="0" />
    <path
       style="opacity:1;fill:#ffffff;fill-opacity:0.82938388;fill-rule:evenodd;stroke:#000000;stroke-width:0.10409544;stroke-linecap:round;stroke-linejoin:round;stroke-miterlimit:4;stroke-dasharray:none;stroke-dashoffset:0.74281108;stroke-opacity:0"
       d="m 24.646931,250.40078 c -0.857437,-0.24408 -1.8279,-0.5225 -2.156584,-0.61872 l -0.597609,-0.17494 -0.01249,-0.49077 -0.01249,-0.49077 -0.106217,0.4417 c -0.08573,0.35651 -0.151103,0.44172 -0.338915,0.44172 -0.224049,0 -4.445849,-1.18311 -5.29812,-1.48474 -0.22865,-0.0809 -0.415726,-0.21001 -0.415726,-0.28688 0,-0.14711 2.18464,-1.78255 4.458657,-3.3378 0.910577,-0.62276 1.382078,-0.88768 1.453238,-0.81652 0.06235,0.0623 0.09977,0.68856 0.0917,1.53461 -0.0084,0.88066 0.0208,1.34948 0.07605,1.22141 0.04933,-0.11433 0.09297,-0.85065 0.09699,-1.63628 l 0.0073,-1.42841 0.441711,-0.32174 c 0.769401,-0.56044 0.995609,-0.64542 1.416016,-0.53202 0.467879,0.12621 6.884117,2.16383 8.613399,2.73538 0.799661,0.2643 1.273165,0.47347 1.273165,0.56244 0,0.16979 -1.064837,1.00768 -3.585644,2.82143 -2.840403,2.04369 -3.268811,2.32106 -3.571748,2.31245 -0.150551,-0.004 -0.975268,-0.20748 -1.832705,-0.45155 z"
       id="path4681"
       inkscape:connector-curvature="0" />
    <path
       style="opacity:1;fill:#ffffff;fill-opacity:0.82938388;fill-rule:evenodd;stroke:#000000;stroke-width:0.10409544;stroke-linecap:round;stroke-linejoin:round;stroke-miterlimit:4;stroke-dasharray:none;stroke-dashoffset:0.74281108;stroke-opacity:0"
       d="m 24.646931,250.40078 c -0.857437,-0.24408 -1.8279,-0.5225 -2.156584,-0.61872 l -0.597609,-0.17494 -0.01074,-0.43881 -0.01074,-0.4388 -0.103516,0.38974 c -0.07885,0.2969 -0.156763,0.38998 -0.327035,0.39074 -0.315735,0.001 -5.440593,-1.46207 -5.64606,-1.61231 -0.09326,-0.0682 -0.137592,-0.17573 -0.09851,-0.23897 0.09213,-0.14907 2.636057,-2.00479 4.422952,-3.22641 0.94316,-0.6448 1.430448,-0.92039 1.501595,-0.84925 0.06156,0.0616 0.100007,0.656 0.09253,1.43068 -0.0079,0.81492 0.02143,1.24529 0.07606,1.11748 0.04887,-0.11432 0.09214,-0.81597 0.09616,-1.55923 l 0.0073,-1.35136 0.695852,-0.44146 c 0.382717,-0.2428 0.755838,-0.44146 0.829159,-0.44146 0.132551,0 6.060615,1.8663 8.79022,2.76738 0.90627,0.29916 1.42906,0.52356 1.42906,0.61338 0,0.16241 -0.98303,0.94099 -3.429746,2.71641 -2.743436,1.99074 -3.413575,2.42603 -3.721735,2.41746 -0.153802,-0.004 -0.981178,-0.20748 -1.838616,-0.45155 z"
       id="path4683"
       inkscape:connector-curvature="0" />
    <path
       style="opacity:1;fill:#ffffff;fill-opacity:0.82938388;fill-rule:evenodd;stroke:#000000;stroke-width:0.10409544;stroke-linecap:round;stroke-linejoin:round;stroke-miterlimit:4;stroke-dasharray:none;stroke-dashoffset:0.74281108;stroke-opacity:0"
       d="m 24.646931,250.40243 c -3.073659,-0.8793 -2.752732,-0.74208 -2.764803,-1.18215 l -0.01061,-0.38684 -0.108354,0.33778 c -0.08619,0.26866 -0.163759,0.33702 -0.379135,0.33407 -0.388633,-0.005 -5.504974,-1.49894 -5.654273,-1.65067 -0.156242,-0.15879 -0.01283,-0.287 1.76671,-1.57945 2.505086,-1.81941 4.013513,-2.80282 4.126244,-2.69009 0.06236,0.0624 0.09936,0.60935 0.08953,1.32374 -0.01085,0.78797 0.01749,1.16334 0.08029,1.06403 0.05337,-0.0844 0.09775,-0.73816 0.09862,-1.45283 l 0.0016,-1.2994 0.695852,-0.44146 c 0.382717,-0.2428 0.756057,-0.44146 0.829649,-0.44146 0.144004,0 5.62675,1.7231 8.477935,2.66441 1.118978,0.36943 1.740855,0.62533 1.740855,0.71636 0,0.16463 -1.024869,0.9773 -3.429746,2.71961 -2.737557,1.98333 -3.414199,2.42261 -3.721735,2.41618 -0.153802,-0.003 -0.981178,-0.20654 -1.838616,-0.45183 z"
       id="path4685"
       inkscape:connector-curvature="0" />
    <path
       style="opacity:1;fill:#ffffff;fill-opacity:0.82938388;fill-rule:evenodd;stroke:#000000;stroke-width:0.10409544;stroke-linecap:round;stroke-linejoin:round;stroke-miterlimit:4;stroke-dasharray:none;stroke-dashoffset:0.74281108;stroke-opacity:0"
       d="m 24.90676,250.48544 c -0.714531,-0.1982 -1.684993,-0.47711 -2.156584,-0.61978 -0.838615,-0.25372 -0.857618,-0.26676 -0.865643,-0.59385 l -0.0082,-0.33444 -0.104386,0.28581 c -0.07888,0.21598 -0.172109,0.28491 -0.38154,0.28211 -0.395716,-0.005 -5.510712,-1.49803 -5.660646,-1.65199 -0.159613,-0.1639 0.06894,-0.35821 2.315181,-1.96826 2.675771,-1.91793 3.457101,-2.42064 3.576587,-2.30115 0.05938,0.0594 0.100012,0.58776 0.09334,1.21374 -0.0074,0.69014 0.02339,1.05298 0.08144,0.96126 0.05129,-0.081 0.09397,-0.6853 0.09485,-1.3428 l 0.0016,-1.19547 0.695852,-0.44146 c 0.382717,-0.2428 0.757375,-0.44146 0.832575,-0.44146 0.143941,0 5.099155,1.55599 8.319111,2.61228 1.193903,0.39166 1.896753,0.67332 1.896753,0.76011 0,0.20468 -1.098471,1.06374 -4.261202,3.33249 -2.217616,1.59078 -2.583784,1.81901 -2.904456,1.81038 -0.146005,-0.004 -0.85008,-0.16931 -1.564611,-0.36752 z"
       id="path4687"
       inkscape:connector-curvature="0" />
    <path
       style="opacity:1;fill:#ffffff;fill-opacity:0.82938388;fill-rule:evenodd;stroke:#000000;stroke-width:0.10409544;stroke-linecap:round;stroke-linejoin:round;stroke-miterlimit:4;stroke-dasharray:none;stroke-dashoffset:0.74281108;stroke-opacity:0"
       d="m 24.90676,250.48748 c -0.714531,-0.19828 -1.684993,-0.47767 -2.156584,-0.62087 -0.838406,-0.25459 -0.857618,-0.26779 -0.865643,-0.5948 l -0.0082,-0.33444 -0.108511,0.29819 c -0.101287,0.27833 -0.137072,0.2942 -0.537437,0.23829 -0.428451,-0.0598 -3.875138,-1.026 -4.943062,-1.38562 -0.310603,-0.1046 -0.582814,-0.2468 -0.604912,-0.31602 -0.05083,-0.15919 4.026625,-3.17307 5.5088,-4.07187 0.369781,-0.22424 0.393686,-0.2266 0.466508,-0.046 0.04221,0.10469 0.07516,0.59857 0.07321,1.09749 -0.0019,0.49893 0.03295,0.8497 0.07755,0.77949 0.0446,-0.0702 0.0818,-0.61884 0.08268,-1.21918 l 0.0016,-1.09153 0.695852,-0.44146 c 0.382717,-0.24281 0.756324,-0.44146 0.830241,-0.44146 0.160734,0 5.281263,1.60523 8.165547,2.55982 1.342279,0.44424 2.052651,0.72877 2.052651,0.82217 0,0.17316 -0.847299,0.85411 -3.117954,2.50579 -2.796458,2.03416 -3.718115,2.63525 -4.03035,2.62855 -0.155548,-0.003 -0.867434,-0.16829 -1.581965,-0.36656 z"
       id="path4689"
       inkscape:connector-curvature="0" />
    <path
       style="opacity:1;fill:#ffffff;fill-opacity:0.82938388;fill-rule:evenodd;stroke:#000000;stroke-width:0.10409544;stroke-linecap:round;stroke-linejoin:round;stroke-miterlimit:4;stroke-dasharray:none;stroke-dashoffset:0.74281108;stroke-opacity:0"
       d="m 24.90676,250.48748 c -2.881206,-0.7995 -3.013252,-0.85037 -3.021055,-1.16371 -0.0069,-0.27822 -0.0087,-0.27895 -0.119813,-0.0486 -0.06532,0.13544 -0.207177,0.23385 -0.337085,0.23385 -0.463732,0 -5.525561,-1.47685 -5.709041,-1.66569 -0.142312,-0.14646 0.08887,-0.34729 2.001998,-1.73921 2.30808,-1.67926 3.774586,-2.64538 3.870275,-2.54969 0.04915,0.0491 0.130696,0.48534 0.181221,0.96932 l 0.09186,0.87996 0.01381,-1.09153 0.01381,-1.09153 0.695851,-0.44146 c 0.382717,-0.24281 0.762469,-0.44146 0.843891,-0.44146 0.156271,0 6.782697,2.08403 8.905375,2.80077 0.685935,0.23161 1.258859,0.42111 1.273165,0.42111 0.01431,0 0.02601,0.0682 0.02601,0.15147 0,0.18235 -0.817721,0.84159 -3.165329,2.55188 -2.748299,2.0022 -3.663937,2.59793 -3.982554,2.5911 -0.155781,-0.003 -0.867854,-0.16829 -1.582385,-0.36656 z"
       id="path4691"
       inkscape:connector-curvature="0" />
    <path
       style="opacity:1;fill:#ffffff;fill-opacity:0.82938388;fill-rule:evenodd;stroke:#000000;stroke-width:0.10409544;stroke-linecap:round;stroke-linejoin:round;stroke-miterlimit:4;stroke-dasharray:none;stroke-dashoffset:0.74281108;stroke-opacity:0"
       d="m 25.842147,250.74282 c -1.038098,-0.28121 -2.72647,-0.7611 -3.299833,-0.93792 -0.583816,-0.18005 -0.650288,-0.22884 -0.656609,-0.48196 l -0.007,-0.28164 -0.117804,0.24511 c -0.103274,0.21487 -0.169714,0.23789 -0.538609,0.18663 -0.50156,-0.0697 -5.071372,-1.36986 -5.36258,-1.52571 -0.111565,-0.0597 -0.202846,-0.1539 -0.202846,-0.20931 0,-0.16345 4.908661,-3.73708 5.691807,-4.14379 0.286342,-0.1487 0.310636,-0.10193 0.431363,0.83051 l 0.08638,0.66715 0.01318,-0.94976 0.01318,-0.94975 0.681561,-0.42734 c 0.374857,-0.23504 0.753341,-0.42734 0.841076,-0.42734 0.216845,0 7.82228,2.38973 9.468149,2.97502 0.444244,0.15798 0.753505,0.3271 0.753505,0.41206 0,0.18436 -1.026256,0.9979 -3.601789,2.85521 -3.335594,2.40542 -3.3225,2.39867 -4.193093,2.16283 z"
       id="path4693"
       inkscape:connector-curvature="0" />
    <path
       style="opacity:1;fill:#ffffff;fill-opacity:0.82938388;fill-rule:evenodd;stroke:#000000;stroke-width:0.10409544;stroke-linecap:round;stroke-linejoin:round;stroke-miterlimit:4;stroke-dasharray:none;stroke-dashoffset:0.74281108;stroke-opacity:0"
       d="m 24.02701,250.25198 c -1.888514,-0.54216 -2.081011,-0.61865 -2.142278,-0.85122 -0.06081,-0.23084 -0.07523,-0.23679 -0.149299,-0.0617 -0.116171,0.27469 -0.506892,0.20326 -3.317568,-0.60647 -2.380795,-0.68589 -2.761033,-0.82107 -2.761033,-0.9816 0,-0.13067 0.679058,-0.65968 2.721435,-2.1201 2.372024,-1.69613 3.116564,-2.17372 3.222932,-2.06735 0.04746,0.0475 0.126764,0.36398 0.176239,0.70338 l 0.08995,0.61709 0.01267,-0.84813 0.01267,-0.84812 0.67301,-0.42504 c 0.370155,-0.23377 0.758613,-0.42504 0.86324,-0.42504 0.104627,0 0.468236,0.0907 0.808019,0.20164 0.339783,0.11091 2.348251,0.74844 4.463264,1.41674 4.423503,1.39774 4.936758,1.58169 4.936758,1.76934 0,0.1759 -0.920507,0.91207 -3.357259,2.68493 -2.734889,1.98976 -3.462287,2.45103 -3.853352,2.44353 -0.178443,-0.003 -1.258175,-0.27428 -2.399408,-0.60191 z"
       id="path4695"
       inkscape:connector-curvature="0" />
    <path
       style="opacity:1;fill:#ffffff;fill-opacity:0.82938388;fill-rule:evenodd;stroke:#000000;stroke-width:0.10409544;stroke-linecap:round;stroke-linejoin:round;stroke-miterlimit:4;stroke-dasharray:none;stroke-dashoffset:0.74281108;stroke-opacity:0"
       d="m 24.02701,250.25198 c -1.897814,-0.54483 -2.080122,-0.6175 -2.135386,-0.85122 -0.05421,-0.22925 -0.06816,-0.2354 -0.135636,-0.0598 -0.106997,0.27843 -0.523473,0.20254 -3.338123,-0.60834 -2.380795,-0.68589 -2.761033,-0.82107 -2.761033,-0.9816 0,-0.1257 0.646345,-0.63236 2.591665,-2.03154 2.245712,-1.61525 3.246265,-2.26258 3.344058,-2.16352 0.04392,0.0445 0.124198,0.31474 0.178395,0.60055 l 0.09854,0.51966 0.01161,-0.74419 0.01162,-0.74419 0.67301,-0.42504 c 0.746279,-0.47132 0.854327,-0.49093 1.517028,-0.2753 0.253122,0.0824 2.190687,0.69615 4.3057,1.36396 4.568171,1.44241 5.248553,1.68545 5.248553,1.87487 0,0.17642 -1.011203,0.98437 -3.432673,2.74268 -2.655239,1.92805 -3.390728,2.39235 -3.777937,2.38493 -0.178443,-0.003 -1.258176,-0.27428 -2.399409,-0.60191 z"
       id="path4697"
       inkscape:connector-curvature="0" />
    <path
       style="opacity:1;fill:#ffffff;fill-opacity:0.82938388;fill-rule:evenodd;stroke:#000000;stroke-width:0.10409544;stroke-linecap:round;stroke-linejoin:round;stroke-miterlimit:4;stroke-dasharray:none;stroke-dashoffset:0.74281108;stroke-opacity:0"
       d="m 24.023557,250.25173 c -1.542632,-0.44485 -2.086964,-0.64374 -2.111571,-0.77152 -0.02757,-0.14313 -0.06703,-0.151 -0.234127,-0.0466 -0.16398,0.10241 -0.41616,0.0708 -1.370142,-0.17186 -1.758675,-0.44731 -4.439383,-1.26647 -4.56914,-1.39623 -0.171587,-0.17159 -0.01019,-0.32148 1.655631,-1.53753 2.312434,-1.6881 4.099237,-2.87253 4.189944,-2.77743 0.0453,0.0475 0.128251,0.2968 0.184343,0.55403 l 0.101984,0.46769 0.01114,-0.69222 0.01114,-0.69222 0.67301,-0.42505 c 0.370154,-0.23377 0.752636,-0.42504 0.849955,-0.42504 0.200784,0 1.208961,0.30771 5.856192,1.78741 3.980074,1.26727 4.365133,1.4082 4.365133,1.59758 0,0.16944 -1.055981,1.0235 -3.163837,2.55885 -2.654305,1.93338 -3.666398,2.579 -4.035131,2.57406 -0.184846,-0.002 -1.271374,-0.27422 -2.414503,-0.60387 z"
       id="path4699"
       inkscape:connector-curvature="0" />
    <path
       style="opacity:1;fill:#ffffff;fill-opacity:0.82938388;fill-rule:evenodd;stroke:#000000;stroke-width:0.10409544;stroke-linecap:round;stroke-linejoin:round;stroke-miterlimit:4;stroke-dasharray:none;stroke-dashoffset:0.74281108;stroke-opacity:0"
       d="m 25.998045,250.80747 c -0.05716,-0.0199 -0.986002,-0.28329 -2.064086,-0.58527 -1.555856,-0.4358 -1.975705,-0.59108 -2.035538,-0.75283 -0.05091,-0.13762 -0.0998,-0.16427 -0.150598,-0.0821 -0.154585,0.25013 -0.531482,0.16966 -4.142031,-0.88428 -0.900178,-0.26277 -1.71864,-0.54119 -1.818806,-0.61872 -0.169683,-0.13132 -0.160767,-0.16065 0.130561,-0.42945 0.921618,-0.85034 5.544645,-4.03028 5.672865,-3.90206 0.04821,0.0482 0.131262,0.27393 0.184555,0.50159 0.09543,0.4077 0.09705,0.40429 0.107333,-0.22632 l 0.01042,-0.64026 0.67301,-0.42505 c 0.370155,-0.23377 0.762783,-0.42504 0.872506,-0.42504 0.334997,0 9.74409,2.99802 10.084006,3.21307 0.07978,0.0505 0.118345,0.16138 0.0857,0.24646 -0.100111,0.26089 -3.321079,2.68803 -5.714849,4.30638 -1.073272,0.72561 -1.440908,0.86215 -1.895062,0.70386 z"
       id="path4701"
       inkscape:connector-curvature="0" />
    <path
       style="opacity:1;fill:#ffffff;fill-opacity:0.82938388;fill-rule:evenodd;stroke:#000000;stroke-width:0.10409544;stroke-linecap:round;stroke-linejoin:round;stroke-miterlimit:4;stroke-dasharray:none;stroke-dashoffset:0.74281108;stroke-opacity:0"
       d="m 25.998045,250.80797 c -0.05716,-0.0197 -0.969164,-0.27628 -2.026672,-0.57028 -1.057505,-0.294 -1.969505,-0.59385 -2.026668,-0.66632 -0.06118,-0.0776 -0.253553,-0.11538 -0.467693,-0.0919 -0.236078,0.0258 -1.191332,-0.19761 -2.721438,-0.63664 -2.519606,-0.72293 -3.098742,-0.92634 -3.098742,-1.08838 0,-0.30477 5.758386,-4.38041 5.933032,-4.19925 0.04331,0.0449 0.124952,0.24537 0.181433,0.44544 0.09955,0.35262 0.102984,0.34583 0.11207,-0.22164 l 0.0094,-0.5854 0.65682,-0.42793 c 0.361251,-0.23537 0.752541,-0.42794 0.869535,-0.42794 0.351874,0 9.762934,2.99109 10.103167,3.21106 0.229452,0.14834 0.07656,0.36537 -0.683551,0.97028 -1.047012,0.83323 -4.010544,2.97962 -5.118246,3.70697 -0.910854,0.5981 -1.296479,0.72839 -1.722419,0.58196 z"
       id="path4703"
       inkscape:connector-curvature="0" />
    <path
       style="opacity:1;fill:#ffffff;fill-opacity:0.82938388;fill-rule:evenodd;stroke:#000000;stroke-width:0.10409544;stroke-linecap:round;stroke-linejoin:round;stroke-miterlimit:4;stroke-dasharray:none;stroke-dashoffset:0.74281108;stroke-opacity:0"
       d="m 25.894114,250.78503 c -1.234782,-0.30274 -3.868592,-1.11266 -3.949409,-1.21448 -0.06116,-0.077 -0.253638,-0.11412 -0.467693,-0.0901 -0.23812,0.0268 -1.177772,-0.193 -2.720505,-0.63625 -2.656514,-0.76326 -3.135114,-0.93842 -3.078337,-1.12659 0.09328,-0.30915 5.743943,-4.32489 5.887405,-4.18398 0.03703,0.0364 0.122238,0.21477 0.189342,0.39645 0.120615,0.32654 0.1221,0.32411 0.129915,-0.2128 l 0.0079,-0.54313 0.649576,-0.41606 c 0.357264,-0.22884 0.753182,-0.41705 0.879817,-0.41825 0.297804,-0.003 7.995943,2.41122 9.669258,3.03216 0.300101,0.11136 0.54564,0.26566 0.54564,0.34287 0,0.1987 -0.80204,0.85514 -3.01402,2.46686 -3.5537,2.58935 -3.933306,2.79832 -4.728895,2.60326 z"
       id="path4705"
       inkscape:connector-curvature="0" />
    <path
       style="opacity:1;fill:#ffffff;fill-opacity:0.82938388;fill-rule:evenodd;stroke:#000000;stroke-width:0.10409544;stroke-linecap:round;stroke-linejoin:round;stroke-miterlimit:4;stroke-dasharray:none;stroke-dashoffset:0.74281108;stroke-opacity:0"
       d="m 25.894114,250.78503 c -0.950302,-0.23299 -3.866052,-1.10624 -3.944213,-1.18126 -0.0543,-0.0521 -0.269433,-0.0948 -0.478065,-0.0948 -0.384423,0 -4.701294,-1.1859 -5.434412,-1.49291 -0.227084,-0.0951 -0.380809,-0.22364 -0.356899,-0.29844 0.07771,-0.2431 4.215929,-3.26867 5.507059,-4.02636 l 0.386127,-0.2266 0.151035,0.34591 0.151038,0.34591 0.0085,-0.49632 c 0.0084,-0.49283 0.01304,-0.4992 0.658053,-0.90841 0.357265,-0.22666 0.754849,-0.41254 0.883521,-0.41309 0.378941,-0.002 9.717373,2.96832 10.096426,3.21099 0.239633,0.15341 0.06348,0.38349 -0.841402,1.09902 -1.104913,0.8737 -4.873672,3.57077 -5.496729,3.93368 -0.450207,0.26223 -0.813967,0.31937 -1.290016,0.20266 z"
       id="path4707"
       inkscape:connector-curvature="0" />
    <path
       style="opacity:1;fill:#ffffff;fill-opacity:0.82938388;fill-rule:evenodd;stroke:#000000;stroke-width:0.10409544;stroke-linecap:round;stroke-linejoin:round;stroke-miterlimit:4;stroke-dasharray:none;stroke-dashoffset:0.74281108;stroke-opacity:0"
       d="m 24.075307,250.28884 c -1.057505,-0.30638 -2.003951,-0.60718 -2.10321,-0.66845 -0.09926,-0.0613 -0.337772,-0.11139 -0.530032,-0.11139 -0.362447,0 -4.702241,-1.19877 -5.404641,-1.49291 -0.22453,-0.094 -0.381378,-0.22448 -0.35882,-0.29844 0.083,-0.27209 5.593477,-4.2367 5.888665,-4.2367 0.04815,0 0.136297,0.152 0.195895,0.33778 0.108153,0.33715 0.108376,0.33686 0.118964,-0.15854 0.01053,-0.49214 0.01609,-0.49979 0.660186,-0.90841 0.357264,-0.22666 0.755314,-0.41255 0.884552,-0.41309 0.236382,-0.001 5.845268,1.7368 8.651187,2.68038 1.233837,0.41492 1.507011,0.5426 1.507011,0.70436 0,0.2498 -1.123114,1.15436 -3.845332,3.09706 -2.519053,1.79771 -2.925747,2.04176 -3.387058,2.03251 -0.195046,-0.004 -1.219862,-0.25778 -2.277367,-0.56416 z"
       id="path4709"
       inkscape:connector-curvature="0" />
    <path
       style="opacity:1;fill:#ffffff;fill-opacity:0.82938388;fill-rule:evenodd;stroke:#000000;stroke-width:0.10409544;stroke-linecap:round;stroke-linejoin:round;stroke-miterlimit:4;stroke-dasharray:none;stroke-dashoffset:0.74281108;stroke-opacity:0"
       d="m 24.02334,250.27717 c -1.086088,-0.31429 -2.019133,-0.6157 -2.073439,-0.66981 -0.0543,-0.0541 -0.27446,-0.0984 -0.489235,-0.0984 -0.389816,0 -4.670738,-1.17886 -5.424311,-1.49373 -0.223911,-0.0935 -0.380309,-0.22366 -0.357751,-0.29761 0.08122,-0.26626 5.586148,-4.2367 5.874089,-4.2367 0.05063,0 0.142878,0.12862 0.204994,0.28581 0.10914,0.2762 0.11331,0.27086 0.123997,-0.15854 0.01066,-0.42805 0.03488,-0.45947 0.66063,-0.85645 0.357264,-0.22665 0.751155,-0.41254 0.875313,-0.41308 0.521925,-0.002 10.117122,3.10426 10.192163,3.29982 0.02885,0.0752 -0.03507,0.23485 -0.142037,0.35482 -0.410564,0.46051 -5.711782,4.32044 -6.451213,4.69727 -0.501581,0.25561 -0.845198,0.20815 -2.9932,-0.41343 z"
       id="path4711"
       inkscape:connector-curvature="0" />
    <path
       style="opacity:1;fill:#ffffff;fill-opacity:0.82938388;fill-rule:evenodd;stroke:#000000;stroke-width:0.10409544;stroke-linecap:round;stroke-linejoin:round;stroke-miterlimit:4;stroke-dasharray:none;stroke-dashoffset:0.74281108;stroke-opacity:0"
       d="m 24.02334,250.27717 c -1.086088,-0.31429 -2.019133,-0.6157 -2.073439,-0.66981 -0.0543,-0.0541 -0.266705,-0.0984 -0.472006,-0.0984 -0.658611,0 -5.638345,-1.45135 -5.783043,-1.68547 -0.04277,-0.0692 0.08117,-0.25301 0.295405,-0.43808 0.912061,-0.7879 5.357678,-3.90449 5.569514,-3.90449 0.05548,0 0.137183,0.10523 0.181578,0.23385 0.06946,0.20123 0.08658,0.17853 0.122735,-0.16277 0.0378,-0.35673 0.106672,-0.43763 0.684911,-0.80448 0.353591,-0.22433 0.74699,-0.40832 0.87422,-0.40886 0.560665,-0.002 10.111401,3.10392 10.192403,3.31501 0.09776,0.25476 -1.247904,1.33245 -4.707485,3.77006 -1.810414,1.27561 -2.102508,1.43839 -2.567149,1.43059 -0.188616,-0.003 -1.231556,-0.26289 -2.317644,-0.57718 z"
       id="path4713"
       inkscape:connector-curvature="0" />
    <path
       style="opacity:1;fill:#ffffff;fill-opacity:0.82938388;fill-rule:evenodd;stroke:#000000;stroke-width:0.10409544;stroke-linecap:round;stroke-linejoin:round;stroke-miterlimit:4;stroke-dasharray:none;stroke-dashoffset:0.74281108;stroke-opacity:0"
       d="m 24.051682,250.28904 c -1.070498,-0.30929 -2.037886,-0.61132 -2.14975,-0.67119 -0.111866,-0.0599 -0.337933,-0.10885 -0.502377,-0.10885 -0.606558,0 -5.569286,-1.46637 -5.704798,-1.68563 -0.04359,-0.0705 0.114348,-0.28159 0.385855,-0.51567 0.543902,-0.46893 4.548794,-3.32593 5.110298,-3.64557 0.384635,-0.21896 0.391342,-0.2192 0.542335,-0.0196 0.144682,0.1913 0.153061,0.1839 0.156188,-0.1379 0.0029,-0.30118 0.07643,-0.38731 0.643009,-0.75351 0.351838,-0.2274 0.745887,-0.41346 0.875665,-0.41346 0.580824,0 10.124715,3.10024 10.207427,3.31578 0.09734,0.25365 -0.939522,1.08963 -4.49916,3.62749 -1.899603,1.35433 -2.298989,1.58087 -2.776411,1.57478 -0.188055,-0.002 -1.217782,-0.25742 -2.288281,-0.56671 z"
       id="path4715"
       inkscape:connector-curvature="0" />
    <path
       style="opacity:1;fill:#ffffff;fill-opacity:0.82938388;fill-rule:evenodd;stroke:#000000;stroke-width:0.10409544;stroke-linecap:round;stroke-linejoin:round;stroke-miterlimit:4;stroke-dasharray:none;stroke-dashoffset:0.74281108;stroke-opacity:0"
       d="m 24.02334,250.2717 c -1.086088,-0.31882 -2.348857,-0.66327 -2.806157,-0.76545 -1.827678,-0.40835 -5.403443,-1.49036 -5.513443,-1.66835 -0.03564,-0.0577 -0.0048,-0.17709 0.06842,-0.26538 0.266525,-0.32114 4.568407,-3.42043 5.469705,-3.94064 0.33021,-0.19059 0.339346,-0.19042 0.490371,0.009 0.1461,0.19322 0.154058,0.1863 0.157196,-0.13652 0.0029,-0.30148 0.07698,-0.38794 0.652881,-0.76232 0.562856,-0.3659 0.70507,-0.41471 1.0653,-0.36559 0.992947,0.1354 9.92582,3.06277 10.009214,3.28009 0.08609,0.22436 -0.763575,0.93588 -3.32467,2.78414 -2.851399,2.05776 -3.44062,2.42043 -3.92321,2.41476 -0.203996,-0.002 -1.25952,-0.26522 -2.345608,-0.58405 z"
       id="path4717"
       inkscape:connector-curvature="0" />
    <path
       style="opacity:1;fill:#ffffff;fill-opacity:0.82938388;fill-rule:evenodd;stroke:#000000;stroke-width:0.10409544;stroke-linecap:round;stroke-linejoin:round;stroke-miterlimit:4;stroke-dasharray:none;stroke-dashoffset:0.74281108;stroke-opacity:0"
       d="m 25.062658,250.58564 c -0.514461,-0.14264 -1.537055,-0.44324 -2.272429,-0.668 -0.735373,-0.22475 -1.416381,-0.40864 -1.513351,-0.40864 -0.505701,0 -5.460627,-1.48905 -5.575972,-1.67568 -0.03408,-0.0551 -0.0021,-0.17251 0.07125,-0.2608 0.359225,-0.43283 5.518205,-4.09157 5.769303,-4.09157 0.07888,0 0.143412,0.0468 0.143412,0.10394 0,0.0572 0.04677,0.10393 0.103931,0.10393 0.05716,0 0.103931,-0.11795 0.103931,-0.2621 0,-0.20717 0.13612,-0.35058 0.649576,-0.68437 0.563637,-0.36641 0.704572,-0.41469 1.0653,-0.3649 0.971862,0.13412 9.92142,3.05062 10.001498,3.25929 0.02982,0.0777 -0.05693,0.26141 -0.19278,0.40821 -0.490067,0.52962 -5.60541,4.24351 -6.399792,4.64644 -0.443527,0.22497 -0.838113,0.20362 -1.953882,-0.10575 z"
       id="path4719"
       inkscape:connector-curvature="0" />
    <path
       style="opacity:1;fill:#ffffff;fill-opacity:0.82938388;fill-rule:evenodd;stroke:#000000;stroke-width:0.10409544;stroke-linecap:round;stroke-linejoin:round;stroke-miterlimit:4;stroke-dasharray:none;stroke-dashoffset:0.74281108;stroke-opacity:0"
       d="m 25.062658,250.58936 c -0.514461,-0.14054 -1.449848,-0.41378 -2.078635,-0.60722 -0.628788,-0.19344 -1.423866,-0.40786 -1.76684,-0.47648 -1.473634,-0.29487 -5.400763,-1.48544 -5.516277,-1.67234 -0.03408,-0.0551 5.29e-4,-0.17663 0.07689,-0.26996 0.342726,-0.41882 5.515089,-4.08241 5.763665,-4.08241 0.07888,0 0.143412,0.0468 0.143412,0.10394 0,0.0572 0.04677,0.10393 0.103931,0.10393 0.05716,0 0.103931,-0.11795 0.103931,-0.2621 0,-0.207 0.134469,-0.34901 0.639704,-0.67556 0.351838,-0.2274 0.758468,-0.41346 0.903624,-0.41346 0.305744,0 4.174209,1.18362 7.706601,2.35795 2.075767,0.69009 2.442397,0.84243 2.442397,1.01484 0,0.2709 -0.912958,1.02547 -3.466578,2.86517 -2.656891,1.9141 -3.270441,2.28667 -3.749538,2.27683 -0.203996,-0.004 -0.791826,-0.1226 -1.30629,-0.26313 z"
       id="path4721"
       inkscape:connector-curvature="0" />
    <path
       style="opacity:1;fill:#ffffff;fill-opacity:0.82938388;fill-rule:evenodd;stroke:#000000;stroke-width:0.10409544;stroke-linecap:round;stroke-linejoin:round;stroke-miterlimit:4;stroke-dasharray:none;stroke-dashoffset:0.74281108;stroke-opacity:0"
       d="m 25.79018,250.78508 c -0.114324,-0.028 -0.932786,-0.26061 -1.818807,-0.51691 -0.886018,-0.2563 -2.40602,-0.66794 -3.377781,-0.91476 -1.846686,-0.46904 -3.986528,-1.09968 -4.597403,-1.35493 -0.200485,-0.0838 -0.33882,-0.20718 -0.314785,-0.28083 0.06649,-0.20373 1.096012,-1.0027 3.218587,-2.49781 2.262092,-1.59338 2.68455,-1.84817 2.754011,-1.66094 0.0839,0.22616 0.238736,0.14044 0.238736,-0.13218 0,-0.207 0.134469,-0.34901 0.639704,-0.67556 0.351838,-0.2274 0.754761,-0.41346 0.895387,-0.41346 0.307356,0 2.389468,0.6242 6.254946,1.87519 3.66078,1.18473 3.902289,1.27838 3.902289,1.51316 0,0.25314 -0.97496,1.05458 -3.466578,2.84961 -3.167412,2.2819 -3.447878,2.42506 -4.328306,2.20942 z"
       id="path4723"
       inkscape:connector-curvature="0" />
    <path
       style="opacity:1;fill:#ffffff;fill-opacity:0.82938388;fill-rule:evenodd;stroke:#000000;stroke-width:0.10409544;stroke-linecap:round;stroke-linejoin:round;stroke-miterlimit:4;stroke-dasharray:none;stroke-dashoffset:0.74281108;stroke-opacity:0"
       d="m 25.79018,250.78562 c -0.114324,-0.0277 -1.073094,-0.29761 -2.130599,-0.59978 -1.057508,-0.30217 -2.513449,-0.69569 -3.235431,-0.8745 -2.56989,-0.63646 -4.767318,-1.35235 -4.767318,-1.55312 0,-0.14861 0.554252,-0.60647 2.036228,-1.68211 2.68347,-1.94771 3.713599,-2.60926 3.964776,-2.54622 0.180991,0.0454 0.234902,0.0145 0.234902,-0.13478 0,-0.10656 0.08185,-0.26465 0.181883,-0.35132 0.357552,-0.30978 1.140039,-0.70609 1.394137,-0.70609 0.612325,0 10.051047,3.06631 10.138254,3.29357 0.03097,0.0807 -0.05483,0.26552 -0.19068,0.41066 -0.499351,0.53354 -4.790972,3.68155 -6.06424,4.44827 -0.597641,0.35988 -0.989867,0.43406 -1.561912,0.29542 z"
       id="path4725"
       inkscape:connector-curvature="0" />
    <path
       style="opacity:1;fill:#ffffff;fill-opacity:0.82938388;fill-rule:evenodd;stroke:#000000;stroke-width:0.10409544;stroke-linecap:round;stroke-linejoin:round;stroke-miterlimit:4;stroke-dasharray:none;stroke-dashoffset:0.74281108;stroke-opacity:0"
       d="m 24.491034,250.43338 c -0.771695,-0.22643 -2.385235,-0.66996 -3.585647,-0.98564 -3.514553,-0.92421 -5.248555,-1.47952 -5.248555,-1.68084 0,-0.21512 1.712497,-1.52512 4.363505,-3.33792 1.070298,-0.73189 1.45709,-0.94437 1.636925,-0.89924 0.181602,0.0456 0.235476,0.0148 0.235476,-0.13463 0,-0.10656 0.08185,-0.26465 0.181883,-0.35132 0.357452,-0.3097 1.140007,-0.70609 1.393957,-0.70609 0.624205,0 10.049989,3.06309 10.138918,3.29483 0.03071,0.08 -0.05532,0.2659 -0.191164,0.41306 -0.525193,0.56894 -5.533083,4.2038 -6.399792,4.64514 -0.489093,0.24906 -0.964814,0.20058 -2.525506,-0.25735 z"
       id="path4727"
       inkscape:connector-curvature="0" />
    <path
       style="opacity:1;fill:#ffffff;fill-opacity:0.82938388;fill-rule:evenodd;stroke:#000000;stroke-width:0.10409544;stroke-linecap:round;stroke-linejoin:round;stroke-miterlimit:4;stroke-dasharray:none;stroke-dashoffset:0.74281108;stroke-opacity:0"
       d="m 24.127271,250.33201 c -0.971761,-0.28334 -2.421609,-0.68017 -3.221884,-0.88184 -1.848847,-0.46592 -4.590282,-1.27468 -4.962742,-1.46408 -0.157197,-0.0799 -0.285813,-0.18216 -0.285813,-0.22716 0,-0.20784 1.807194,-1.58785 4.363505,-3.33206 1.069676,-0.72985 1.457193,-0.94224 1.636925,-0.89713 0.184938,0.0464 0.235476,0.0152 0.235476,-0.14545 0,-0.32974 1.083305,-1.04659 1.581616,-1.04659 0.629499,0 10.042411,3.05839 10.132078,3.29206 0.03129,0.0815 -0.05425,0.26957 -0.1901,0.41782 -0.479743,0.52355 -4.759484,3.65694 -6.085258,4.45528 -0.785284,0.47287 -1.043199,0.45911 -3.203803,-0.17085 z"
       id="path4729"
       inkscape:connector-curvature="0" />
    <path
       style="opacity:1;fill:#ffffff;fill-opacity:0.82938388;fill-rule:evenodd;stroke:#000000;stroke-width:0.10409544;stroke-linecap:round;stroke-linejoin:round;stroke-miterlimit:4;stroke-dasharray:none;stroke-dashoffset:0.74281108;stroke-opacity:0"
       d="m 23.347785,250.13329 c -1.400482,-0.39327 -3.177715,-0.88334 -3.949409,-1.08904 -1.988354,-0.53001 -3.348752,-0.96012 -3.58644,-1.13393 -0.203097,-0.14851 -0.203094,-0.15073 5.29e-4,-0.37575 0.583202,-0.64444 5.38457,-3.99163 5.748628,-4.00757 0.146365,-0.006 0.292534,-0.11057 0.36793,-0.26218 0.155837,-0.31339 1.161979,-0.92712 1.519894,-0.92712 0.654682,0 10.064832,3.05057 10.157843,3.29296 0.08668,0.22589 -0.297765,0.58164 -2.048383,1.89552 -3.425428,2.57086 -4.631594,3.33656 -5.242438,3.32804 -0.232013,-0.003 -1.567691,-0.32765 -2.96817,-0.72093 z"
       id="path4731"
       inkscape:connector-curvature="0" />
    <path
       style="opacity:1;fill:#ffffff;fill-opacity:0.82938388;fill-rule:evenodd;stroke:#000000;stroke-width:0.10409544;stroke-linecap:round;stroke-linejoin:round;stroke-miterlimit:4;stroke-dasharray:none;stroke-dashoffset:0.74281108;stroke-opacity:0"
       d="m 23.919409,250.29242 c -1.086088,-0.30612 -2.933475,-0.81676 -4.105306,-1.13476 -2.761176,-0.74932 -3.747725,-1.05912 -4.002376,-1.25685 -0.201607,-0.15654 -0.195543,-0.17094 0.238942,-0.56713 1.022295,-0.93221 5.250985,-3.85273 5.578451,-3.85273 0.122542,0 0.258266,-0.1001 0.316924,-0.23375 0.128616,-0.29304 1.147061,-0.9095 1.502574,-0.9095 0.668845,0 10.063895,3.04731 10.158978,3.29509 0.03104,0.0809 -0.07826,0.28833 -0.242879,0.46099 -0.539533,0.56586 -4.688827,3.60033 -6.009444,4.39484 -0.447877,0.26945 -0.733346,0.36996 -1.039318,0.36593 -0.232013,-0.003 -1.31046,-0.25602 -2.396546,-0.56213 z"
       id="path4733"
       inkscape:connector-curvature="0" />
    <path
       style="opacity:1;fill:#ffffff;fill-opacity:0.82938388;fill-rule:evenodd;stroke:#000000;stroke-width:0.10409544;stroke-linecap:round;stroke-linejoin:round;stroke-miterlimit:4;stroke-dasharray:none;stroke-dashoffset:0.74281108;stroke-opacity:0"
       d="m 23.919409,250.29372 c -1.086088,-0.30463 -2.933475,-0.81496 -4.105306,-1.13407 -2.715583,-0.73949 -3.74363,-1.06028 -4.000998,-1.24847 -0.204636,-0.14964 -0.204631,-0.15119 0.0011,-0.37987 0.539826,-0.60032 5.456282,-4.05036 5.771933,-4.05036 0.09837,0 0.255121,-0.11639 0.348334,-0.25866 0.218157,-0.33294 1.174792,-0.88235 1.538571,-0.88361 0.554622,-0.002 9.985425,3.01592 10.123638,3.23955 0.107283,0.17359 -0.154676,0.52812 -0.722387,0.97768 -0.934725,0.74018 -3.704018,2.74388 -4.890418,3.53842 -1.418079,0.9497 -1.393592,0.9485 -4.064373,0.19939 z"
       id="path4735"
       inkscape:connector-curvature="0" />
    <path
       style="opacity:1;fill:#ffffff;fill-opacity:0.82938388;fill-rule:evenodd;stroke:#000000;stroke-width:0.10409544;stroke-linecap:round;stroke-linejoin:round;stroke-miterlimit:4;stroke-dasharray:none;stroke-dashoffset:0.74281108;stroke-opacity:0"
       d="m 23.919409,250.29632 c -1.086088,-0.30393 -2.936443,-0.81388 -4.111902,-1.13323 -2.644082,-0.71833 -3.730483,-1.05893 -3.995293,-1.25256 -0.203404,-0.14873 -0.203391,-0.15093 0.0019,-0.37922 0.539826,-0.60032 5.456282,-4.05036 5.771933,-4.05036 0.09837,0 0.255121,-0.11639 0.348334,-0.25866 0.218329,-0.33321 1.174904,-0.88235 1.5392,-0.88361 0.561317,-0.002 9.983121,3.01321 10.123009,3.23955 0.107429,0.17382 -0.154842,0.5282 -0.726948,0.98225 -0.971696,0.77118 -3.66749,2.72432 -4.859197,3.52055 -1.444853,0.96537 -1.416037,0.96386 -4.091033,0.21529 z"
       id="path4737"
       inkscape:connector-curvature="0" />
    <path
       style="opacity:1;fill:#ffffff;fill-opacity:0.82938388;fill-rule:evenodd;stroke:#000000;stroke-width:0.10409544;stroke-linecap:round;stroke-linejoin:round;stroke-miterlimit:4;stroke-dasharray:none;stroke-dashoffset:0.74281108;stroke-opacity:0"
       d="m 25.79018,250.80699 c -0.05716,-0.0202 -1.249778,-0.34737 -2.65026,-0.72707 -6.054256,-1.64144 -7.483088,-2.08281 -7.483088,-2.31153 0,-0.0492 0.152,-0.23315 0.33778,-0.40885 0.820055,-0.77558 5.294664,-3.87859 5.593009,-3.87859 0.0975,0 0.253544,-0.11639 0.346757,-0.25866 0.218329,-0.33321 1.174904,-0.88235 1.5392,-0.88361 0.567167,-0.002 9.982589,3.01235 10.124004,3.24116 0.173334,0.28046 -0.378873,0.77366 -3.038753,2.71404 -0.749832,0.547 -1.888995,1.34817 -2.531472,1.78039 -1.052,0.70771 -1.216123,0.78502 -1.650693,0.77763 -0.265404,-0.005 -0.529321,-0.0247 -0.586484,-0.0449 z"
       id="path4739"
       inkscape:connector-curvature="0" />
    <path
       style="opacity:1;fill:#ffffff;fill-opacity:0.82938388;fill-rule:evenodd;stroke:#000000;stroke-width:0.10409544;stroke-linecap:round;stroke-linejoin:round;stroke-miterlimit:4;stroke-dasharray:none;stroke-dashoffset:0.74281108;stroke-opacity:0"
       d="m 21.996672,249.77911 c -4.628849,-1.26792 -6.028042,-1.69181 -6.230054,-1.8874 -0.130328,-0.12618 -0.116671,-0.18096 0.103931,-0.4169 0.547878,-0.58595 5.392621,-3.99386 5.677747,-3.99386 0.07587,0 0.242876,-0.12193 0.371115,-0.27096 0.318341,-0.36996 1.210487,-0.87012 1.554167,-0.87131 0.567167,-0.002 9.982589,3.01235 10.124004,3.24116 0.117038,0.18937 -0.171596,0.54546 -0.910273,1.123 -1.177382,0.92054 -3.588192,2.66377 -4.75657,3.43941 -0.956014,0.63467 -1.136679,0.71708 -1.558976,0.71114 -0.264059,-0.004 -2.220462,-0.4841 -4.375091,-1.07428 z"
       id="path4741"
       inkscape:connector-curvature="0" />
    <path
       style="opacity:1;fill:#ffffff;fill-opacity:0.82938388;fill-rule:evenodd;stroke:#000000;stroke-width:0.10409544;stroke-linecap:round;stroke-linejoin:round;stroke-miterlimit:4;stroke-dasharray:none;stroke-dashoffset:0.74281108;stroke-opacity:0"
       d="m 21.996672,249.77977 c -4.634513,-1.27038 -6.028381,-1.6928 -6.230054,-1.88806 -0.130328,-0.12618 -0.116671,-0.18096 0.103931,-0.4169 0.524267,-0.5607 5.388745,-3.99386 5.658943,-3.99386 0.06553,0 0.232534,-0.1219 0.371112,-0.27089 0.355116,-0.3818 1.238139,-0.87022 1.575358,-0.87138 0.551281,-0.002 9.839804,2.962 10.100929,3.22313 0.168122,0.16812 -0.123277,0.54189 -0.889582,1.14103 -1.177382,0.92054 -3.588192,2.66377 -4.75657,3.43941 -0.954789,0.63385 -1.137222,0.71716 -1.558976,0.71186 -0.266464,-0.003 -2.200849,-0.47835 -4.375091,-1.07434 z"
       id="path4743"
       inkscape:connector-curvature="0" />
    <path
       style="opacity:1;fill:#ffffff;fill-opacity:0.82938388;fill-rule:evenodd;stroke:#000000;stroke-width:0.10409544;stroke-linecap:round;stroke-linejoin:round;stroke-miterlimit:4;stroke-dasharray:none;stroke-dashoffset:0.74281108;stroke-opacity:0"
       d="m 21.788741,267.04164 -6.9e-5,-3.76169 h 2.208617 c 1.214742,0 2.547697,-0.0354 2.962125,-0.0787 l 0.753504,-0.0787 v 2.74898 2.74898 l -0.377878,1.07124 c -0.207833,0.58918 -0.39324,1.08905 -0.412012,1.11083 -0.01876,0.0218 -0.187804,-0.0332 -0.375626,-0.12215 -0.676124,-0.32022 -1.31327,-0.41134 -2.551684,-0.36493 -0.948709,0.0356 -1.329198,0.0948 -1.713235,0.26674 l -0.493676,0.22103 z"
       id="path4745"
       inkscape:connector-curvature="0" />
    <path
       style="opacity:1;fill:#ffffff;fill-opacity:0.82938388;fill-rule:evenodd;stroke:#000000;stroke-width:0.10409544;stroke-linecap:round;stroke-linejoin:round;stroke-miterlimit:4;stroke-dasharray:none;stroke-dashoffset:0.74281108;stroke-opacity:0"
       d="m 26.361805,270.57373 c -0.370967,-0.16922 -0.73637,-0.22138 -1.76684,-0.2522 -1.250546,-0.0374 -1.461276,-0.01 -2.572311,0.34018 l -0.233847,0.0736 v -3.68651 -3.68651 l 2.728209,-0.0641 c 2.694755,-0.0633 3.948604,-0.21246 4.899207,-0.58267 0.165127,-0.0643 0.323154,-0.094 0.351174,-0.066 0.0672,0.0672 -2.732979,7.94234 -2.870732,8.07356 -0.03694,0.0352 -0.277627,-0.032 -0.53486,-0.14936 z"
       id="path4747"
       inkscape:connector-curvature="0" />
    <path
       style="opacity:1;fill:#ffffff;fill-opacity:0.82938388;fill-rule:evenodd;stroke:#000000;stroke-width:0.10409544;stroke-linecap:round;stroke-linejoin:round;stroke-miterlimit:4;stroke-dasharray:none;stroke-dashoffset:0.74281108;stroke-opacity:0"
       d="m 21.788807,267.03782 v -3.67325 l 2.572311,-0.0638 c 2.546831,-0.0631 3.923437,-0.21544 4.90242,-0.54239 0.252634,-0.0844 0.480464,-0.13227 0.50629,-0.10645 0.02582,0.0258 -0.197583,0.73892 -0.496461,1.58466 -0.934879,2.64542 -2.308863,6.42041 -2.354501,6.46894 -0.02402,0.0255 -0.311184,-0.0446 -0.638146,-0.1559 -0.812757,-0.27664 -3.293208,-0.28686 -3.906999,-0.0161 -0.221339,0.0976 -0.443494,0.17752 -0.493675,0.17752 -0.05064,0 -0.09124,-1.63437 -0.09124,-3.67326 z"
       id="path4749"
       inkscape:connector-curvature="0" />
    <path
       style="opacity:1;fill:#ffffff;fill-opacity:0.82938388;fill-rule:evenodd;stroke:#000000;stroke-width:0.10409544;stroke-linecap:round;stroke-linejoin:round;stroke-miterlimit:4;stroke-dasharray:none;stroke-dashoffset:0.74281108;stroke-opacity:0"
       d="m 21.788807,267.05003 v -3.68529 l 2.529467,-0.0707 c 2.486551,-0.0695 3.878366,-0.21918 4.896805,-0.52662 0.283147,-0.0855 0.535575,-0.13464 0.560956,-0.10926 0.02537,0.0254 -0.223964,0.80705 -0.554101,1.73705 -1.008017,2.83959 -2.255914,6.26135 -2.300663,6.30846 -0.02328,0.0245 -0.309017,-0.0395 -0.634968,-0.14225 -1.151438,-0.36295 -2.939328,-0.32119 -4.263649,0.0996 l -0.233847,0.0743 z"
       id="path4751"
       inkscape:connector-curvature="0" />
    <path
       style="opacity:1;fill:#ffffff;fill-opacity:0.82938388;fill-rule:evenodd;stroke:#000000;stroke-width:0.10409544;stroke-linecap:round;stroke-linejoin:round;stroke-miterlimit:4;stroke-dasharray:none;stroke-dashoffset:0.74281108;stroke-opacity:0"
       d="m 20.021967,266.63936 c -0.943181,-2.18016 -1.728232,-3.9966 -1.744556,-4.03653 -0.01632,-0.0399 0.217519,0.0107 0.519657,0.11259 0.592407,0.1997 2.240537,0.5117 2.705928,0.51224 l 0.285811,2.6e-4 v 3.68958 c 0,2.02927 -0.0117,3.68871 -0.02598,3.68765 -0.01429,-10e-4 -0.797676,-1.7857 -1.740858,-3.96586 z"
       id="path4753"
       inkscape:connector-curvature="0" />
    <path
       style="opacity:1;fill:#ffffff;fill-opacity:0.82938388;fill-rule:evenodd;stroke:#000000;stroke-width:0.10409544;stroke-linecap:round;stroke-linejoin:round;stroke-miterlimit:4;stroke-dasharray:none;stroke-dashoffset:0.74281108;stroke-opacity:0"
       d="m 21.788807,270.54771 c 0,-0.12927 -0.03898,-0.25063 -0.08662,-0.26968 -0.07189,-0.0288 -3.34313,-7.46742 -3.34313,-7.60214 0,-0.0239 0.431568,0.066 0.959038,0.19976 1.485858,0.37676 2.796043,0.48149 5.069007,0.4052 2.421853,-0.0813 3.532124,-0.19708 4.560855,-0.47563 0.422043,-0.11428 0.789271,-0.18586 0.816063,-0.15907 0.02679,0.0268 -0.03243,0.29728 -0.131604,0.60109 -0.306734,0.93964 -2.559254,7.19381 -2.657351,7.37819 -0.08569,0.16105 -0.137739,0.1579 -0.690745,-0.0417 -0.849503,-0.30665 -3.025113,-0.31134 -3.897905,-0.008 l -0.597609,0.20742 z"
       id="path4755"
       inkscape:connector-curvature="0" />
    <path
       style="opacity:1;fill:#ffffff;fill-opacity:0.82938388;fill-rule:evenodd;stroke:#000000;stroke-width:0.10409544;stroke-linecap:round;stroke-linejoin:round;stroke-miterlimit:4;stroke-dasharray:none;stroke-dashoffset:0.74281108;stroke-opacity:0"
       d="m 21.788807,270.633 c 0,-0.0824 -0.158406,-0.48433 -0.352012,-0.89327 -0.41642,-0.87957 -3.077737,-6.99381 -3.077737,-7.07094 0,-0.0292 0.222155,0.0109 0.493676,0.0891 1.583341,0.45635 2.204172,0.52242 4.75488,0.50608 2.731667,-0.0175 4.036242,-0.1283 5.291717,-0.44943 0.452458,-0.11574 0.844415,-0.18867 0.871011,-0.16207 0.06664,0.0666 -2.179207,6.48944 -2.730604,7.80912 l -0.143293,0.34295 -0.605099,-0.21652 c -0.855274,-0.30605 -3.02936,-0.3121 -3.90493,-0.0109 -0.494448,0.1701 -0.597609,0.17975 -0.597609,0.0559 z"
       id="path4757"
       inkscape:connector-curvature="0" />
    <path
       style="opacity:1;fill:#ffffff;fill-opacity:0.82938388;fill-rule:evenodd;stroke:#000000;stroke-width:0.10409544;stroke-linecap:round;stroke-linejoin:round;stroke-miterlimit:4;stroke-dasharray:none;stroke-dashoffset:0.74281108;stroke-opacity:0"
       d="m 24.075307,271.33084 c -0.943181,-0.10474 -1.825831,-0.19349 -1.961446,-0.19723 -0.416473,-0.0115 -0.0822,-0.27215 0.586121,-0.45705 0.607795,-0.16816 2.501757,-0.25024 2.882336,-0.12492 0.940123,0.30956 1.143249,0.43084 1.143249,0.68258 0,0.23225 -0.04395,0.25779 -0.467693,0.2717 -0.257231,0.008 -1.239386,-0.0703 -2.182567,-0.17508 z"
       id="path4759"
       inkscape:connector-curvature="0" />
    <path
       style="opacity:1;fill:#ffffff;fill-opacity:0.82938388;fill-rule:evenodd;stroke:#000000;stroke-width:0.10409544;stroke-linecap:round;stroke-linejoin:round;stroke-miterlimit:4;stroke-dasharray:none;stroke-dashoffset:0.74281108;stroke-opacity:0"
       d="m 23.529641,271.25308 c -1.196829,-0.12248 -1.50953,-0.18519 -1.425919,-0.28593 0.169923,-0.20475 0.893313,-0.34299 2.127483,-0.40656 1.019805,-0.0525 1.210582,-0.0336 1.76684,0.17577 0.479134,0.1803 0.631282,0.28881 0.656801,0.46845 0.03215,0.22634 0.0073,0.23333 -0.779489,0.21948 -0.446984,-0.008 -1.502555,-0.0849 -2.345716,-0.17121 z"
       id="path4761"
       inkscape:connector-curvature="0" />
    <path
       style="opacity:1;fill:#ffffff;fill-opacity:0.82938388;fill-rule:evenodd;stroke:#000000;stroke-width:0.10409544;stroke-linecap:round;stroke-linejoin:round;stroke-miterlimit:4;stroke-dasharray:none;stroke-dashoffset:0.74281108;stroke-opacity:0"
       d="m 25.010691,271.38112 c -0.08574,-0.0184 -0.775589,-0.0889 -1.532993,-0.1568 -0.757401,-0.0679 -1.377095,-0.15687 -1.377095,-0.19773 0,-0.31125 2.485212,-0.62828 3.371059,-0.43004 0.632155,0.14147 1.201938,0.46602 1.201938,0.68462 0,0.12725 -0.144454,0.15512 -0.753504,0.14537 -0.414428,-0.007 -0.823659,-0.0271 -0.909405,-0.0454 z"
       id="path4763"
       inkscape:connector-curvature="0" />
  </g>
</svg>
